<!DOCTYPE svg PUBLIC "-//W3C//DTD SVG 20010904//EN" "http://www.w3.org/TR/2001/REC-SVG-20010904/DTD/svg10.dtd">
<svg version="1.0" xmlns="http://www.w3.org/2000/svg" width="145px" height="145px" viewBox="0 0 1450 1450" preserveAspectRatio="xMidYMid meet">
<g id="layer1" fill="#000000" stroke="none">
 <path d="M1185 1184 c-104 -68 -250 -163 -322 -210 l-133 -86 -336 197 c-201 118 -339 194 -345 188 -5 -5 133 -237 343 -576 333 -537 353 -567 368 -550 28 30 641 1144 634 1154 -3 5 -8 9 -12 9 -4 0 -92 -57 -197 -126z m-297 -526 c-77 -139 -141 -254 -143 -256 -2 -2 -51 75 -111 170 -59 95 -129 208 -156 251 -30 49 -42 75 -31 69 10 -6 76 -44 146 -86 71 -42 134 -76 140 -76 7 0 73 40 147 89 74 49 138 90 142 90 3 1 -57 -113 -134 -251z"/>
 </g>

</svg>