<!DOCTYPE svg PUBLIC "-//W3C//DTD SVG 20010904//EN" "http://www.w3.org/TR/2001/REC-SVG-20010904/DTD/svg10.dtd">
<svg version="1.0" xmlns="http://www.w3.org/2000/svg" width="145px" height="145px" viewBox="0 0 1450 1450" preserveAspectRatio="xMidYMid meet">
<g id="layer1" fill="#050707" stroke="none">
 <path d="M625 1353 c-44 -47 -98 -94 -119 -105 -22 -11 -63 -36 -92 -55 l-52 -35 -58 39 c-31 21 -63 42 -70 48 -9 6 -17 6 -25 -2 -8 -8 -3 -23 22 -58 69 -96 68 -83 16 -167 -26 -41 -47 -79 -47 -84 0 -6 -43 -52 -95 -103 -52 -52 -95 -99 -95 -106 0 -7 43 -54 95 -106 52 -51 95 -98 95 -104 0 -7 20 -43 45 -81 24 -38 45 -74 45 -80 0 -5 -21 -38 -46 -73 -36 -47 -44 -65 -35 -74 8 -8 16 -8 25 -2 7 6 39 27 70 48 l58 39 52 -35 c29 -19 70 -44 92 -55 21 -11 77 -59 123 -106 46 -47 89 -86 97 -86 7 0 50 37 96 83 47 48 109 98 143 116 33 18 75 44 92 58 37 27 43 25 124 -33 26 -19 51 -34 57 -34 27 0 19 25 -28 86 -28 36 -50 69 -48 73 2 3 24 38 51 78 26 39 47 77 47 84 0 7 41 52 90 100 50 47 90 94 90 104 0 10 -39 55 -86 101 -52 49 -94 100 -106 125 -10 23 -34 64 -54 91 -19 28 -32 54 -28 61 4 7 27 38 51 70 40 52 47 77 22 77 -5 0 -30 -15 -56 -34 -88 -62 -84 -62 -159 -11 -37 25 -74 45 -81 45 -7 0 -57 43 -109 95 -53 52 -104 94 -113 94 -9 -1 -52 -40 -96 -86z m229 -199 c58 -15 136 -51 136 -63 0 -3 -15 -16 -33 -28 -17 -12 -75 -51 -127 -87 -52 -36 -98 -66 -103 -66 -12 0 -257 173 -257 182 0 11 56 38 120 59 69 23 183 24 264 3z m-466 -196 c11 -18 51 -78 90 -133 l69 -100 -85 -125 c-47 -69 -88 -129 -92 -133 -13 -14 -58 73 -74 143 -28 117 -12 249 40 337 14 24 26 43 28 43 2 0 13 -15 24 -32z m767 -93 c36 -117 17 -288 -40 -373 -17 -25 -25 -29 -32 -20 -34 43 -166 244 -166 253 0 9 95 153 157 237 l19 28 22 -33 c12 -17 30 -59 40 -92z m-290 -415 c69 -47 125 -88 125 -91 0 -3 -17 -15 -37 -26 -101 -56 -249 -69 -369 -32 -68 21 -114 45 -114 59 0 4 52 43 115 86 64 42 118 81 121 86 10 16 33 4 159 -82z"/>
 </g>

</svg>