<!DOCTYPE svg PUBLIC "-//W3C//DTD SVG 20010904//EN" "http://www.w3.org/TR/2001/REC-SVG-20010904/DTD/svg10.dtd">
<svg version="1.0" xmlns="http://www.w3.org/2000/svg" width="145px" height="145px" viewBox="0 0 1450 1450" preserveAspectRatio="xMidYMid meet">
<g id="layer1" fill="#040707" stroke="none">
 <path d="M205 1239 c-4 -6 39 -79 96 -162 57 -84 135 -198 173 -254 l70 -103 -70 -102 c-38 -57 -116 -172 -173 -256 -69 -100 -101 -156 -95 -162 7 -7 36 8 85 41 41 28 155 107 255 175 l180 123 247 -169 c136 -93 251 -171 257 -175 6 -3 13 0 16 8 3 8 -67 118 -163 258 -92 134 -167 251 -167 259 0 8 76 125 168 259 96 140 165 250 162 258 -3 8 -10 12 -16 8 -5 -3 -121 -82 -256 -175 l-247 -169 -61 41 c-34 23 -144 98 -246 168 -224 153 -207 143 -215 129z"/>
 </g>

</svg>