<!DOCTYPE svg PUBLIC "-//W3C//DTD SVG 20010904//EN" "http://www.w3.org/TR/2001/REC-SVG-20010904/DTD/svg10.dtd">
<svg version="1.0" xmlns="http://www.w3.org/2000/svg" width="145px" height="145px" viewBox="0 0 1450 1450" preserveAspectRatio="xMidYMid meet">
<g id="layer1" fill="#000000" stroke="none">
 <path d="M707 1371 c-8 -66 -50 -189 -88 -257 -31 -55 -32 -56 -68 -49 -60 11 -181 63 -244 105 -87 59 -95 55 -43 -17 46 -65 80 -135 105 -218 21 -67 21 -70 4 -83 -45 -35 -187 -94 -261 -110 -75 -15 -108 -32 -64 -32 46 0 184 -43 260 -82 l84 -41 -7 -36 c-12 -65 -65 -185 -110 -251 -24 -36 -40 -66 -35 -68 5 -2 37 15 70 38 72 49 146 83 224 103 l56 15 35 -62 c41 -73 69 -152 86 -236 6 -33 15 -60 19 -60 3 0 12 30 19 67 15 80 61 204 96 255 l25 36 57 -15 c77 -20 174 -65 234 -108 27 -19 51 -35 54 -35 12 0 2 24 -29 67 -46 65 -80 135 -105 217 -25 81 -33 70 94 131 79 37 113 48 223 71 31 6 27 24 -6 24 -52 0 -146 30 -239 75 -92 45 -92 46 -86 78 12 64 64 185 109 251 25 38 43 70 40 73 -3 3 -37 -16 -77 -42 -69 -46 -180 -96 -246 -110 -30 -6 -33 -4 -67 57 -35 62 -79 186 -91 261 -8 52 -21 46 -28 -12z m114 -458 c72 -37 111 -93 117 -168 19 -227 -269 -324 -395 -133 -24 35 -28 52 -28 108 0 90 37 152 114 192 69 36 121 36 192 1z"/>
 </g>

</svg>