<!DOCTYPE svg PUBLIC "-//W3C//DTD SVG 20010904//EN" "http://www.w3.org/TR/2001/REC-SVG-20010904/DTD/svg10.dtd">
<svg version="1.0" xmlns="http://www.w3.org/2000/svg" width="145px" height="145px" viewBox="0 0 1450 1450" preserveAspectRatio="xMidYMid meet">
<g id="layer1" fill="#060606" stroke="none">
 <path d="M603 1336 c-72 -18 -153 -59 -207 -107 l-46 -41 -93 0 c-84 1 -115 5 -172 28 -12 4 1 -15 32 -48 28 -30 65 -82 82 -115 29 -59 30 -63 24 -164 -10 -183 36 -309 151 -417 62 -58 171 -122 207 -122 36 0 138 -175 139 -237 0 -13 5 -23 10 -23 6 0 10 9 10 20 0 56 96 228 132 238 11 2 51 20 89 38 199 95 317 340 268 553 -9 41 -7 50 21 108 17 34 54 88 83 120 32 34 44 54 32 49 -49 -18 -123 -28 -189 -24 -65 3 -76 6 -116 40 -124 101 -301 142 -457 104z m293 -141 c31 -17 61 -37 67 -45 14 -23 -47 -142 -105 -206 -27 -28 -48 -54 -48 -57 0 -3 17 1 38 10 40 17 195 24 245 10 26 -7 27 -10 27 -70 0 -130 -65 -248 -180 -325 l-64 -44 -28 34 c-37 44 -108 184 -108 214 0 12 -4 26 -10 29 -6 4 -10 -6 -10 -22 0 -35 -50 -142 -96 -205 l-36 -48 -49 27 c-100 54 -177 164 -199 282 -13 74 -6 118 21 126 11 4 59 7 107 6 80 0 112 -5 167 -27 12 -5 -2 16 -33 51 -48 53 -99 136 -116 192 -6 18 1 26 39 48 74 44 121 55 222 52 78 -2 99 -7 149 -32z"/>
 </g>

</svg>