<!DOCTYPE svg PUBLIC "-//W3C//DTD SVG 20010904//EN" "http://www.w3.org/TR/2001/REC-SVG-20010904/DTD/svg10.dtd">
<svg version="1.0" xmlns="http://www.w3.org/2000/svg" width="150px" height="150px" viewBox="0 0 1500 1500" preserveAspectRatio="xMidYMid meet">
<g id="layer1" fill="#000000" stroke="none">
 <path d="M605 1476 c-158 -32 -272 -92 -385 -206 -96 -96 -148 -178 -187 -295 -25 -72 -27 -94 -28 -230 0 -131 3 -159 23 -220 83 -247 255 -419 497 -495 107 -34 274 -38 388 -11 434 104 676 547 531 973 -77 228 -278 413 -512 473 -89 22 -242 28 -327 11z m90 -153 c-10 -41 -69 -165 -92 -192 l-19 -24 -60 18 c-68 19 -174 65 -174 74 0 4 28 25 63 48 61 40 145 75 222 92 65 15 68 14 60 -16z m225 -3 c62 -18 168 -74 200 -106 13 -13 13 -16 0 -24 -38 -24 -164 -71 -196 -73 -35 -2 -38 1 -70 58 -19 33 -43 86 -53 118 l-20 58 37 -6 c20 -4 66 -15 102 -25z m-582 -294 c52 -145 57 -128 -60 -186 -147 -71 -152 -69 -123 45 20 76 55 153 97 211 39 55 43 52 86 -70z m947 -21 c29 -61 38 -94 61 -202 l4 -23 -63 24 c-69 26 -131 56 -161 79 -17 13 -18 18 -7 63 7 27 26 82 43 123 l31 75 29 -35 c16 -19 44 -65 63 -104z m-480 -56 c25 -7 58 -29 86 -58 79 -78 88 -175 26 -268 -117 -172 -388 -89 -387 119 0 67 27 127 74 164 63 51 125 64 201 43z m-565 -283 c30 -13 74 -34 97 -49 l41 -26 -15 -58 c-8 -31 -28 -87 -45 -123 l-29 -65 -25 30 c-56 67 -124 235 -124 305 0 24 6 23 100 -14z m1099 -17 c-10 -61 -25 -110 -51 -164 -23 -48 -81 -135 -89 -135 -14 0 -89 194 -89 231 0 17 100 75 177 104 60 22 61 21 52 -36z m-718 -320 c32 -56 82 -179 75 -186 -22 -23 -251 63 -321 120 l-29 24 44 23 c52 27 180 70 195 66 5 -1 21 -23 36 -47z m369 23 c25 -8 70 -25 99 -39 l55 -24 -50 -35 c-79 -58 -224 -114 -293 -114 -21 0 -21 0 4 66 13 36 39 89 57 119 36 60 32 59 128 27z"/>
 </g>

</svg>